<svg xmlns="http://www.w3.org/2000/svg" width="513" height="513" viewBox="0 0 513 513">
  <g id="组_155" data-name="组 155" transform="translate(-308 -315)">
    <circle id="椭圆_13" data-name="椭圆 13" cx="256.5" cy="256.5" r="256.5" transform="translate(308 315)" fill="#fff"/>
    <circle id="椭圆_14" data-name="椭圆 14" cx="31.134" cy="31.134" r="31.134" transform="translate(570.213 574.356)" fill="#476fb5"/>
    <path id="路径_120724" data-name="路径 120724" d="M548.79,361.273a203,203,0,0,0-48.176,5.765c.159.02.316.044.475.064V445.46a30,30,0,0,0-25.136,29.6q0,.777.039,1.544h-.039l.076.583a30.129,30.129,0,0,0,.464,3.556l9.758,74.766h38.873l10.184-74.315a30.082,30.082,0,0,0,.556-4.059l.073-.531h-.04q.039-.766.04-1.544a30,30,0,0,0-25.136-29.6V376.232c2.507-2.759,6.98-4.643,12.134-4.8A158.958,158.958,0,0,1,628.922,582.809,35.717,35.717,0,0,1,590.7,639.58a158.815,158.815,0,0,1-236.458-19.367C378.677,704.6,456.526,766.3,548.79,766.3a201.567,201.567,0,0,0,109.061-31.846,74.849,74.849,0,0,1,86.477-117.781,202.729,202.729,0,0,0,6.977-52.888C751.3,451.942,660.636,361.273,548.79,361.273Z" fill="#476fb5"/>
    <circle id="椭圆_15" data-name="椭圆 15" cx="65.982" cy="65.982" r="65.982" transform="translate(647.048 616.916)" fill="none" stroke="#2e5392" stroke-width="1"/>
    <g id="组_154" data-name="组 154">
      <path id="路径_120725" data-name="路径 120725" d="M681.459,663.867c2.17,1.148,3.081,1.08,4.253-.159.485-.513.507-.943-.14-1.287a1.706,1.706,0,0,1-.863-1.988,3.65,3.65,0,0,0-1.784-3.792,2.773,2.773,0,0,1-1.078-2.387.693.693,0,0,1,.583-.334c2.02.355,2.637.007,3.621-1.8.589-1.078,1.388-2.039,2.043-3.082.348-.553.509-1.236.905-1.742a10.488,10.488,0,0,1,1.53-1.337,1.6,1.6,0,0,1,.962,1.637,2.4,2.4,0,0,0,2.889,2.631c.536-.04,1.047-.042,1.23.595s-.176.984-.659,1.325a6.743,6.743,0,0,0-1.4,1.237c-.81,1.017-.765,1.258.1,2.273a5.6,5.6,0,0,0,6.635.861,1.9,1.9,0,0,0,.623-.575c1.116-2.111,2.686-3.985,3.123-6.453a2.706,2.706,0,0,1,3.667-1.951,8.666,8.666,0,0,0,9.182-1.8,9.7,9.7,0,0,0,1.294-1.854,15.545,15.545,0,0,1,1.11-1.638c1.01-1.147,1.006-1.062,2.436-.446a4.787,4.787,0,0,0,5.284-.451c.394-.32.79-.637,1.2-.939a3.52,3.52,0,0,1,3.347-.765c2.147.644,3.819-.386,5.232-1.9.621-.665,1.15-1.416,1.846-2.285a8.045,8.045,0,0,1,.426,1.152,6.553,6.553,0,0,1-1.72,5.793,17.616,17.616,0,0,0-3.275,4.735,2.584,2.584,0,0,1-2.551,1.51,3.7,3.7,0,0,0-2.784.67,1,1,0,0,1-.8.052,5.089,5.089,0,0,0-3.441.275,2.679,2.679,0,0,1-2.185-.012c-3.28-1.371-6.615.021-7.354,3.237-.4,1.738-.7,3.649.6,5.282a2.082,2.082,0,0,0,1.893.879,3.965,3.965,0,0,1,2.726.6,1.044,1.044,0,0,0,.8.2,16.564,16.564,0,0,0,3.206-1.491c.362-.246.283-1.142.42-1.816a.92.92,0,0,1,1.163,1.2,2.253,2.253,0,0,0,.386,2.032,2.242,2.242,0,0,1,.292.8,2.593,2.593,0,0,0,2.424,2.25,2.624,2.624,0,0,0,2.6-2.214c.153-1,.533-.862,1.272-.667a9.785,9.785,0,0,0,2.613.274,2.671,2.671,0,0,1,2.274.929,1.047,1.047,0,0,0,1.632.268,3.705,3.705,0,0,1,1.358-.358c.592-.129.842-.361.677-1.065a1.7,1.7,0,0,1,.335-1.4,2.035,2.035,0,0,0,.62-2.053c-.191-1.108-.048-1.38.988-1.229a3.013,3.013,0,0,0,3.413-1.77.859.859,0,0,1,.388-.4,12.088,12.088,0,0,1,1.213-.3,10.4,10.4,0,0,1-.182,1.147,16.821,16.821,0,0,1-.641,2.04,1.7,1.7,0,0,1-.679.739c-1.215.732-2.5,1.355-3.673,2.149-.865.585-.673,1.7.309,2.249.45.254,1.055.462.8,1.07a1.662,1.662,0,0,1-1.058.724,5.6,5.6,0,0,0-4.076,2.81,5.368,5.368,0,0,0,1.69,6.62c1.249,1.037,1.133,1.81-.248,2.736a2.266,2.266,0,0,0-.962,1.449c-.059.756.643,1.044,1.362,1.173a1.134,1.134,0,0,1,.6,1.861A7.667,7.667,0,0,0,740.159,683a1.464,1.464,0,0,1-.759.966,1.475,1.475,0,0,0-.98,1.262,2.649,2.649,0,0,1-.3.893,3.3,3.3,0,0,0-.055,3.664,11.526,11.526,0,0,1,.6,2.377,4.9,4.9,0,0,0,3.513,3.429,4.64,4.64,0,0,0,4.831-1.226,9.339,9.339,0,0,0,2.42-4.857c.069-.349.188-.689.284-1.033l.28.021a8.885,8.885,0,0,1,.075.946,7.7,7.7,0,0,0,.933,3.83c.63,1.206.543,1.667-.493,2.557a14.723,14.723,0,0,1-1.571,1.057c-.555.364-1.127.7-1.667,1.088-1.08.766-2.124,1.585-3.22,2.328a5.491,5.491,0,0,0-2.43,3.048,2.8,2.8,0,0,1-2.592,2.143,5.566,5.566,0,0,0-4.759,4.757,9.626,9.626,0,0,0,.346,2.508c.03.184.153.353.187.537.319,1.733.73,2.5-1.81,2.448-2.072-.042-3.523,1.268-4.953,2.527-.736.647-1.38,1.4-2.083,2.083a6.048,6.048,0,0,0-2,4.369c-.009.752-.336.967-1.063.928a5.873,5.873,0,0,1-4.883-2.431c-1.834-2.569-5.765-3.427-8.033-1.829a4.839,4.839,0,0,0-1.648,1.791c-1.039,2.322-2.551,2.07-4.422,1.508a3.93,3.93,0,0,1-1.2-.565c-2.082-1.554-4.211-1.234-6.364-.21-.658.312-1.287.682-1.944.995a1.5,1.5,0,0,1-2.293-1.009c-.691-3.594-3.356-5.276-6.329-6.644a14.842,14.842,0,0,0-6.009-1.193,26.946,26.946,0,0,1-4.229-.733l-.036-.4a11.12,11.12,0,0,1,1.07-.6,2.509,2.509,0,0,0,1.674-2.59,14.113,14.113,0,0,0-.7-5.334,5,5,0,0,0-3.743-2.9,4.264,4.264,0,0,1-1.712-.69,14.5,14.5,0,0,1-4.135-5.709,4.312,4.312,0,0,1-.164-.766c.138-.087.2-.154.241-.147a6.939,6.939,0,0,0,7.446-6.076,9.215,9.215,0,0,0-.732-5.935,1.337,1.337,0,0,1-.069-.89,2.641,2.641,0,0,0-1.752-3.4c-.606-.21-1.091-.466-1.161-1.2a1.591,1.591,0,0,1,.843-1.744,8.83,8.83,0,0,0,1.553-1.08,2.737,2.737,0,0,0,.9-3.075,2.7,2.7,0,0,0-2.962-1.568c-1.592.154-1.639.031-1.483-1.576a15.579,15.579,0,0,0-.182-2.783c-.025-.29-.1-.576-.2-1.1,1.114.621,1.993,1.145,2.9,1.609a8.9,8.9,0,0,0,2,.835,5.554,5.554,0,0,0,5.782-3.12C681.1,664.7,681.274,664.3,681.459,663.867Zm25.578,53.114c14.812.724,28.476-12.835,28-28.584-.363-12.094-10.486-27.753-29.522-26.942-14.7.626-26.52,13.4-26.274,28.465C679.477,704.117,692.068,717.52,707.037,716.981Z" fill="#476fb5"/>
      <path id="路径_120726" data-name="路径 120726" d="M684.362,702.564c.965-1.434,1.922-2.873,2.9-4.3,1.68-2.456,3.354-4.915,5.07-7.346a1.269,1.269,0,0,0-.066-1.689c-2.278-3.313-4.52-6.65-6.769-9.982-.192-.285-.349-.593-.674-1.153a23.057,23.057,0,0,0,2.973-.022,3.4,3.4,0,0,1,3.794,2.031,48.443,48.443,0,0,0,4.286,5.974,4.242,4.242,0,0,1,.332-.791c1.4-2.069,2.856-4.107,4.225-6.2a2,2,0,0,1,1.947-1.021c2.4.075,2.141.125,2.148-2.138.007-2.314,0-4.628,0-6.942,0-1.181.027-1.205,1.241-1.207.729,0,1.461.044,2.186,0,.806-.052,1.119.215,1.1,1.072-.047,2.725.005,5.452-.029,8.177-.011.832.293,1.1,1.113,1.094,2.429-.019,1.877-.364,2.8,1.911,1.635,4.042,3.254,8.091,4.894,12.131.083.2.3.351.457.525a2.715,2.715,0,0,0,.414-.55q2.691-6.534,5.351-13.08a1.336,1.336,0,0,1,1.49-.977c1.316.065,2.638.018,4.145.018-.347.86-.6,1.523-.878,2.174q-4.664,10.85-9.321,21.7a1.207,1.207,0,0,1-1.262.881c-.7,0-.966-.308-1.219-.915q-3.54-8.493-7.148-16.957a1.867,1.867,0,0,0-.707-.874,9.632,9.632,0,0,0-.106,1.026q-.013,13.218-.014,26.436c0,1.318,0,1.321-1.309,1.33-.666,0-1.335-.043-2,.009-.906.071-1.229-.286-1.214-1.2.041-2.535.013-5.071.005-7.607,0-1.152-.108-1.327-1.248-1.244a2.538,2.538,0,0,1-2.621-1.387c-1.337-2.147-2.842-4.191-4.284-6.272-.651-.939-.835-.939-1.472-.018-1.549,2.237-3.112,4.466-4.629,6.725a1.849,1.849,0,0,1-1.8.95c-1.319-.065-2.643-.017-3.966-.017Zm20.1-20.689-.2-.109a5.431,5.431,0,0,0-.567.611c-1.571,2.3-3.1,4.626-4.717,6.889a1.155,1.155,0,0,0-.053,1.579c1.621,2.34,3.2,4.709,4.809,7.059a5.2,5.2,0,0,0,.729.662Z" fill="#476fb5"/>
    </g>
  </g>
</svg>
